<svg width="34" height="34" viewBox="0 0 34 34" fill="none" xmlns="http://www.w3.org/2000/svg">
<path d="M12.9679 0C16.3803 0.0115692 19.6496 1.37726 22.0626 3.79883C24.4757 6.22055 25.8372 9.50195 25.8488 12.9268C25.8562 15.1566 25.2901 17.3294 24.2335 19.2471C24.3687 19.3484 24.4974 19.4588 24.6173 19.5791L32.924 27.918C33.2606 28.2443 33.5293 28.6348 33.714 29.0664C33.8987 29.4979 33.996 29.9621 34.0001 30.4316C34.0042 30.9013 33.9147 31.368 33.7374 31.8027C33.5603 32.2372 33.2986 32.6319 32.9679 32.9639C32.637 33.296 32.2428 33.5585 31.8097 33.7363C31.3765 33.9142 30.9125 34.0041 30.4445 34C29.9765 33.9959 29.5141 33.8982 29.0841 33.7129C28.6541 33.5275 28.2647 33.2578 27.9396 32.9199L19.631 24.584C19.5221 24.4747 19.4216 24.3574 19.3282 24.2354C18.8772 24.4936 18.4106 24.726 17.9298 24.9287C16.3585 25.5912 14.6722 25.9356 12.9679 25.9414C11.2634 25.9471 9.57402 25.6139 7.99817 24.9619C6.42247 24.3099 4.99046 23.3521 3.78528 22.1426C2.58001 20.933 1.62536 19.4956 0.975708 17.9141C0.326075 16.3326 -0.00558815 14.6374 0.00012207 12.9268C0.00588179 11.2164 0.348876 9.52415 1.00891 7.94727C1.6691 6.37015 2.63349 4.93878 3.8468 3.7373C6.27603 1.33187 9.5553 -0.0114738 12.9679 0ZM12.9855 4.6543C10.8042 4.6543 8.71248 5.52443 7.17004 7.07227C6.40638 7.83868 5.80018 8.74865 5.38684 9.75C4.9735 10.7515 4.76086 11.8252 4.76086 12.9092C4.76087 13.9932 4.97351 15.0669 5.38684 16.0684C5.80017 17.0697 6.40639 17.9797 7.17004 18.7461C7.93373 19.5124 8.84026 20.1204 9.83801 20.5352C10.8359 20.95 11.9054 21.1641 12.9855 21.1641C14.0656 21.1641 15.1351 20.95 16.1329 20.5352C17.1307 20.1204 18.0372 19.5124 18.8009 18.7461C20.3434 17.1981 21.2101 15.0984 21.2101 12.9092C21.2101 10.72 20.3434 8.62027 18.8009 7.07227C17.2585 5.52442 15.1667 4.6543 12.9855 4.6543Z" fill="white"/>
</svg>
