<svg width="60" height="60" viewBox="0 0 60 60" fill="none" xmlns="http://www.w3.org/2000/svg">
<path d="M30 54.2334C32.7614 54.2334 35 51.9948 35 49.2334C35 46.472 32.7614 44.2334 30 44.2334C27.2386 44.2334 25 46.472 25 49.2334C25 51.9948 27.2386 54.2334 30 54.2334Z" fill="black"/>
<path d="M48.6333 29.5162L48.8167 29.2329C48.9976 28.9524 49.121 28.6387 49.1795 28.3101C49.2381 27.9816 49.2307 27.6446 49.1578 27.3189C49.0849 26.9931 48.948 26.6852 48.7549 26.4129C48.5619 26.1406 48.3166 25.9095 48.0333 25.7329C42.6143 22.3852 36.3697 20.6134 30 20.6162C29.0667 20.6162 28.15 20.6162 27.25 20.7329L32.6 26.0829C37.0913 26.4792 41.4283 27.9172 45.2667 30.2829C45.8177 30.6168 46.4769 30.7235 47.105 30.5804C47.7332 30.4374 48.2812 30.0558 48.6333 29.5162Z" fill="black"/>
<path d="M54.6001 15.6338C49.0455 12.1694 42.8221 9.91697 36.3369 9.02375C29.8518 8.13053 23.2511 8.61671 16.9668 10.4505L21.3501 14.8338C31.8224 12.5856 42.7586 14.511 51.8335 20.2005C52.3815 20.5242 53.0329 20.6251 53.6532 20.4825C54.2735 20.3398 54.8153 19.9644 55.1668 19.4338L55.3501 19.1505C55.5352 18.8714 55.6628 18.5582 55.7253 18.2292C55.7878 17.9002 55.784 17.562 55.7141 17.2345C55.6443 16.907 55.5098 16.5967 55.3185 16.3219C55.1272 16.047 54.883 15.8131 54.6001 15.6338Z" fill="black"/>
<path d="M5.00009 7.91641L10.1668 13.0831C8.49246 13.8548 6.86718 14.7287 5.30009 15.6997C5.0132 15.875 4.76432 16.1059 4.56814 16.3789C4.37197 16.6519 4.23248 16.9614 4.15791 17.2892C4.08334 17.617 4.0752 17.9565 4.13397 18.2874C4.19274 18.6184 4.31723 18.9343 4.50009 19.2164L4.68342 19.4997C5.03493 20.0304 5.57677 20.4058 6.19706 20.5484C6.81735 20.6911 7.46874 20.5901 8.01676 20.2664C9.9636 19.0418 12.0097 17.9826 14.1334 17.0997L19.3668 22.3331C16.7183 23.184 14.183 24.3537 11.8168 25.8164C11.5349 25.9943 11.2911 26.2265 11.0997 26.4994C10.9083 26.7723 10.773 27.0805 10.7016 27.4061C10.6303 27.7317 10.6244 28.0683 10.6842 28.3962C10.744 28.7242 10.8684 29.0369 11.0501 29.3164L11.2334 29.5997C11.5849 30.1304 12.1268 30.5057 12.7471 30.6484C13.3674 30.7911 14.0187 30.6901 14.5668 30.3664C17.3946 28.6187 20.5005 27.3674 23.7501 26.6664L29.7501 32.6664C25.7582 32.7079 21.8504 33.8187 18.4334 35.8831C18.1521 36.0594 17.9087 36.29 17.7175 36.5615C17.5262 36.8329 17.391 37.1397 17.3196 37.464C17.2482 37.7882 17.2422 38.1235 17.3018 38.4501C17.3614 38.7767 17.4855 39.0882 17.6668 39.3664L17.8334 39.6331C18.2002 40.1751 18.7624 40.5542 19.4025 40.6909C20.0425 40.8276 20.7106 40.7113 21.2668 40.3664C23.5098 39.034 26.0295 38.2357 28.6307 38.0334C31.2318 37.831 33.8446 38.2301 36.2668 39.1997L48.3334 51.2497L50.6834 48.8997L7.35009 5.56641L5.00009 7.91641Z" fill="black"/>
</svg>
