<svg width="20" height="12" viewBox="0 0 20 12" fill="none" xmlns="http://www.w3.org/2000/svg">
<path d="M0.227011 5.46934C0.185009 5.46934 0.152008 5.50301 0.147007 5.55142L0 6.71949L0.146007 7.86967C0.152008 7.91807 0.185009 7.95175 0.226011 7.95175C0.266013 7.95175 0.300015 7.91807 0.306015 7.86967L0.480024 6.72054L0.306015 5.55142C0.300015 5.50301 0.267013 5.46934 0.227011 5.46934ZM1.04805 4.83058C1.04105 4.78007 1.00705 4.74535 0.965048 4.74535C0.923046 4.74535 0.887044 4.78113 0.882044 4.82953L0.685034 6.72054L0.882044 8.5684C0.887044 8.61786 0.922046 8.65364 0.965048 8.65364C1.00705 8.65364 1.04105 8.61892 1.04805 8.56946L1.27106 6.72054L1.04805 4.83058ZM4.14721 3.08585C4.10757 3.08665 4.06975 3.1035 4.04162 3.1329C4.01349 3.16231 3.99722 3.20199 3.9962 3.2437L3.83919 6.72054L3.9962 8.96828C4.0002 9.05562 4.0662 9.12613 4.14721 9.12613C4.22821 9.12613 4.29421 9.05562 4.29921 8.96828L4.47622 6.72054L4.29921 3.2437C4.29794 3.2019 4.28145 3.16221 4.25317 3.13283C4.22488 3.10346 4.18694 3.08664 4.14721 3.08585ZM2.54413 4.29391C2.51333 4.29443 2.4839 4.30739 2.46193 4.33011C2.43997 4.35284 2.42714 4.38358 2.42612 4.41597L2.25011 6.72054L2.42612 8.94934C2.42739 8.98155 2.44033 9.01203 2.46227 9.03453C2.48421 9.05703 2.51349 9.06985 2.54413 9.07036C2.60413 9.07036 2.65513 9.01774 2.66113 8.94934L2.86114 6.71949L2.66113 4.41492C2.65513 4.34652 2.60513 4.29391 2.54413 4.29391ZM5.77729 9.12508C5.87729 9.12508 5.9583 9.04089 5.9623 8.93145L6.11631 6.72159L5.9623 2.09141C5.96053 2.04057 5.94041 1.99235 5.90604 1.95657C5.87167 1.92079 5.82562 1.90014 5.77729 1.89884C5.7283 1.89884 5.68129 1.91917 5.64646 1.95542C5.61164 1.99167 5.59181 2.04092 5.59128 2.09246L5.45527 6.72265L5.59128 8.93251C5.59232 8.98378 5.61235 9.0326 5.64709 9.06857C5.68183 9.10454 5.72855 9.12482 5.77729 9.12508ZM9.11345 9.1356C9.18041 9.13479 9.24442 9.10651 9.29186 9.05678C9.3393 9.00706 9.36643 8.93982 9.36747 8.86937L9.47447 6.72265L9.36747 1.37689C9.36643 1.30644 9.3393 1.2392 9.29186 1.18947C9.24442 1.13975 9.18041 1.11147 9.11345 1.11066C9.04642 1.1112 8.98226 1.13939 8.93477 1.18918C8.88727 1.23896 8.86023 1.30636 8.85944 1.37689L8.76344 6.72159L8.85944 8.87147C8.861 8.94145 8.88839 9.00805 8.9358 9.05716C8.98321 9.10627 9.04693 9.13402 9.11345 9.13455M7.43237 9.12613C7.55238 9.12613 7.64838 9.02511 7.65238 8.89567V8.89778L7.78239 6.72159L7.65238 2.05774C7.65186 1.9967 7.62844 1.93836 7.58724 1.8954C7.54604 1.85243 7.49038 1.82833 7.43237 1.82833C7.37437 1.82833 7.31871 1.85243 7.2775 1.8954C7.2363 1.93836 7.21289 1.9967 7.21236 2.05774L7.09635 6.72159L7.21236 8.89778C7.21315 8.95863 7.23668 9.01671 7.27785 9.05944C7.31903 9.10218 7.37454 9.12614 7.43237 9.12613ZM3.34217 9.10508C3.37713 9.1043 3.41049 9.08948 3.4354 9.06365C3.46032 9.03783 3.47491 9.00296 3.47617 8.96618L3.66618 6.71844L3.47617 4.58119C3.47491 4.54441 3.46032 4.50954 3.4354 4.48371C3.41049 4.45788 3.37713 4.44306 3.34217 4.44228C3.30713 4.44281 3.27363 4.45755 3.24866 4.48343C3.2237 4.50931 3.20919 4.54433 3.20816 4.58119L3.04215 6.71844L3.20816 8.96618C3.20893 9.00322 3.22333 9.03851 3.24832 9.06461C3.27332 9.09072 3.30696 9.1056 3.34217 9.10614M1.75209 8.98407C1.80409 8.98407 1.84609 8.93987 1.85209 8.88094L2.0641 6.71949L1.85209 4.47701C1.84609 4.41703 1.80409 4.37388 1.75209 4.37388C1.70009 4.37388 1.65708 4.41703 1.65208 4.47701L1.46507 6.71949L1.65108 8.87989C1.65608 8.93987 1.69908 8.98407 1.75109 8.98407M8.26841 1.98197C8.20573 1.98197 8.14559 2.0081 8.10117 2.05465C8.05675 2.10119 8.03167 2.16436 8.0314 2.23032L7.9254 6.7237L8.0314 8.88515C8.03167 8.9513 8.05689 9.01462 8.10153 9.06119C8.14616 9.10777 8.20655 9.13378 8.26941 9.1335C8.33227 9.13322 8.39245 9.10667 8.43671 9.05971C8.48097 9.01274 8.50569 8.94919 8.50542 8.88305V8.88515L8.62343 6.72265L8.50542 2.22927C8.5049 2.16349 8.47969 2.10059 8.4353 2.05427C8.39091 2.00796 8.33093 1.98197 8.26841 1.98197ZM4.95825 9.12929C5.00247 9.12875 5.04476 9.11009 5.07613 9.07728C5.1075 9.04447 5.12548 9.00008 5.12626 8.95355L5.29126 6.72159L5.12626 2.4492C5.12548 2.40266 5.1075 2.35828 5.07613 2.32547C5.04476 2.29266 5.00247 2.274 4.95825 2.27346C4.91385 2.27373 4.87131 2.29227 4.83973 2.32511C4.80814 2.35795 4.79002 2.40248 4.78924 2.4492L4.64323 6.72159L4.78924 8.9546C4.79028 9.00113 4.80851 9.04541 4.84007 9.07802C4.87162 9.11064 4.91402 9.12903 4.95825 9.12929ZM6.80234 8.91777L6.94435 6.72265L6.80234 1.93672C6.80182 1.88052 6.78037 1.82677 6.7426 1.78702C6.70482 1.74727 6.65375 1.7247 6.60033 1.72415C6.49032 1.72415 6.40032 1.81781 6.39732 1.93672L6.27131 6.72159L6.39832 8.91882C6.40132 9.03668 6.49032 9.12929 6.60033 9.12929C6.71034 9.12929 6.79934 9.03668 6.80234 8.91777ZM17.5399 3.96348C17.2134 3.9645 16.8903 4.03278 16.5888 4.16447C16.5295 3.45858 16.3148 2.77692 15.9618 2.1734C15.6089 1.56988 15.1273 1.06107 14.5552 0.687229C13.9831 0.313384 13.3361 0.084759 12.6656 0.0194421C11.995 -0.0458749 11.3191 0.0539083 10.6915 0.310897C10.5065 0.386664 10.4565 0.464535 10.4555 0.616068V8.83148C10.4565 8.98933 10.5735 9.12192 10.7205 9.13665L17.5399 9.14192C18.1923 9.14192 18.8181 8.86918 19.2794 8.3837C19.7408 7.89823 20 7.23979 20 6.55322C20 5.86666 19.7408 5.20822 19.2794 4.72274C18.8181 4.23727 18.1923 3.96348 17.5399 3.96348ZM9.9525 0.608702C9.88086 0.609244 9.81227 0.639287 9.76143 0.692395C9.71058 0.745502 9.68153 0.817451 9.68048 0.892827L9.57048 6.72475L9.68048 8.84201C9.68179 8.9171 9.71099 8.98867 9.76184 9.04138C9.81268 9.0941 9.88112 9.12376 9.9525 9.12403C10.0239 9.12321 10.0921 9.09301 10.1426 9.0399C10.193 8.98679 10.2217 8.915 10.2225 8.8399V8.84201L10.3435 6.72475L10.2235 0.892827C10.2225 0.817631 10.1936 0.745838 10.1429 0.69276C10.0923 0.639681 10.024 0.609518 9.9525 0.608702ZM1.9871 10.7888C1.69608 10.7162 1.61708 10.6783 1.61708 10.5573C1.61708 10.471 1.68208 10.3826 1.87909 10.3826C2.0471 10.3826 2.17911 10.4542 2.29611 10.5815L2.56113 10.311C2.47672 10.213 2.37334 10.1351 2.25793 10.0827C2.14253 10.0302 2.01778 10.0044 1.89209 10.0069C1.53008 10.0069 1.23706 10.2226 1.23706 10.5731C1.23706 10.954 1.47307 11.0676 1.81109 11.1497C2.15711 11.2329 2.22011 11.2876 2.22011 11.4128C2.22011 11.558 2.11711 11.6222 1.90009 11.6222C1.81108 11.6244 1.72271 11.6057 1.64142 11.5675C1.56012 11.5292 1.48793 11.4725 1.43007 11.4012L1.16606 11.6496C1.30507 11.8643 1.57308 12 1.87909 12C2.38012 12 2.60013 11.7517 2.60013 11.3844C2.60013 10.9645 2.27811 10.8603 1.9871 10.7888ZM3.67618 10.0069C3.17616 10.0069 2.87914 10.4163 2.87914 11.0035C2.87914 11.5917 3.17516 12 3.67618 12C4.17621 12 4.47322 11.5917 4.47322 11.0035C4.47322 10.4152 4.17721 10.0069 3.67618 10.0069ZM3.67618 11.617C3.38017 11.617 3.25616 11.3486 3.25616 11.0035C3.25616 10.6583 3.38017 10.391 3.67618 10.391C3.9722 10.391 4.0962 10.6594 4.0962 11.0035C4.0962 11.3486 3.9722 11.617 3.67618 11.617ZM5.9553 11.1213C5.9553 11.4307 5.81029 11.6212 5.57728 11.6212C5.34427 11.6212 5.20226 11.4254 5.20226 11.1161V10.0364H4.83524V11.1213C4.83524 11.6843 5.13526 11.9989 5.57728 11.9989C6.0443 11.9989 6.32232 11.6759 6.32232 11.1161V10.0364H5.9553V11.1213ZM7.90539 10.854C7.90539 10.9614 7.9114 11.2044 7.9114 11.275C7.88739 11.2255 7.82739 11.1297 7.78339 11.0571L7.13236 10.0364H6.78034V11.9684H7.14236V11.1182C7.14236 11.0108 7.13636 10.7677 7.13636 10.6962C7.16036 10.7456 7.22136 10.8425 7.26536 10.914L7.9394 11.9684H8.26741V10.0364H7.90539V10.854ZM9.31447 10.0364H8.74044V11.9684H9.28746C9.76049 11.9684 10.2275 11.6811 10.2275 11.0024C10.2275 10.2963 9.83849 10.0364 9.31447 10.0364ZM9.28746 11.5938H9.10746V10.4121H9.30146C9.68948 10.4121 9.84949 10.6078 9.84949 11.0024C9.84949 11.356 9.67348 11.5928 9.28746 11.5928M11.3626 10.3889C11.4321 10.3848 11.5013 10.4027 11.5611 10.4402C11.621 10.4777 11.6688 10.5331 11.6986 10.5994L12.0386 10.4331C11.9236 10.1827 11.7136 10.0059 11.3686 10.0059C10.8885 10.0059 10.5525 10.4142 10.5525 11.0014C10.5525 11.6117 10.8745 11.9979 11.3546 11.9979C11.6876 11.9979 11.9086 11.8348 12.0346 11.5612L11.7246 11.3686C11.6276 11.5391 11.5306 11.6138 11.3646 11.6138C11.0896 11.6138 10.9295 11.3486 10.9295 11.0014C10.9295 10.6436 11.0876 10.3889 11.3626 10.3889ZM12.7246 10.0353H12.3576V11.9674H13.4607V11.5864H12.7246V10.0353ZM14.4277 10.0048C13.9277 10.0048 13.6307 10.4142 13.6307 11.0014C13.6307 11.5896 13.9267 11.9979 14.4277 11.9979C14.9287 11.9979 15.2248 11.5896 15.2248 11.0014C15.2248 10.4131 14.9287 10.0048 14.4277 10.0048ZM14.4277 11.6149C14.1317 11.6149 14.0077 11.3465 14.0077 11.0014C14.0077 10.6562 14.1317 10.3889 14.4277 10.3889C14.7237 10.3889 14.8477 10.6572 14.8477 11.0014C14.8477 11.3465 14.7237 11.6149 14.4277 11.6149ZM16.7068 11.1192C16.7068 11.4286 16.5628 11.6191 16.3298 11.6191C16.0958 11.6191 15.9538 11.4233 15.9538 11.114V10.0343H15.5868V11.1192C15.5868 11.6822 15.8868 11.9968 16.3298 11.9968C16.7958 11.9968 17.0739 11.6738 17.0739 11.114V10.0343H16.7068V11.1192ZM18.1069 10.0353H17.5329V11.9663H18.0809C18.5529 11.9663 19.0199 11.679 19.0199 11.0003C19.0199 10.2942 18.6319 10.0353 18.1069 10.0353ZM18.0809 11.5906H17.9009V10.4089H18.0949C18.4819 10.4089 18.6419 10.6046 18.6419 10.9992C18.6419 11.3528 18.4669 11.5896 18.0819 11.5896" fill="white"/>
</svg>
