<svg width="20" height="20" viewBox="0 0 20 20" fill="none" xmlns="http://www.w3.org/2000/svg">
<path fill-rule="evenodd" clip-rule="evenodd" d="M3.63636 0C2.67194 0 1.74702 0.383116 1.06507 1.06507C0.383116 1.74702 0 2.67194 0 3.63636V16.3636C0 17.3281 0.383116 18.253 1.06507 18.9349C1.74702 19.6169 2.67194 20 3.63636 20H16.3636C17.3281 20 18.253 19.6169 18.9349 18.9349C19.6169 18.253 20 17.3281 20 16.3636V3.63636C20 2.67194 19.6169 1.74702 18.9349 1.06507C18.253 0.383116 17.3281 0 16.3636 0H3.63636ZM10.3091 3.18182H12.4791C12.4791 4.63636 13.7082 6.28182 15.5791 6.28182V8.45091C14.2909 8.36182 13.19 8.15091 12.4791 7.52091V13.0991C12.4791 14.6491 11.2536 16.8182 8.45091 16.8182C5.02727 16.8182 4.42182 13.7182 4.42182 12.7891C4.42182 11.86 4.96727 8.76 8.76 8.76V10.93C7.76818 10.72 6.59091 11.5491 6.59091 12.7891C6.59091 14.3391 7.52091 14.6491 8.45091 14.6491C9.38091 14.6491 10.31 13.7191 10.31 12.7891L10.3091 3.18182Z" fill="white"/>
</svg>
